<?xml version="1.0" standalone="no"?>
<!DOCTYPE svg PUBLIC "-//W3C//DTD SVG 20010904//EN"
 "http://www.w3.org/TR/2001/REC-SVG-20010904/DTD/svg10.dtd">
<svg version="1.0" xmlns="http://www.w3.org/2000/svg"
 width="128.000000pt" height="128.000000pt" viewBox="0 0 128.000000 128.000000"
 preserveAspectRatio="xMidYMid meet">
<metadata>
Created by potrace 1.11, written by Peter Selinger 2001-2013
</metadata>
<g transform="translate(0.000000,128.000000) scale(0.100000,-0.100000)"
fill="#000000" stroke="none">
<path d="M0 640 l0 -640 640 0 640 0 0 640 0 640 -640 0 -640 0 0 -640z m800
460 c0 -13 7 -20 20 -20 17 0 20 -7 20 -40 0 -33 3 -40 20 -40 19 0 20 -7 20
-100 0 -93 1 -100 20 -100 19 0 20 -7 20 -220 0 -213 -1 -220 -20 -220 -13 0
-20 -7 -20 -20 0 -19 -7 -20 -200 -20 l-200 0 0 140 c0 133 1 140 20 140 17 0
20 7 20 40 0 33 3 40 20 40 17 0 20 7 20 40 0 33 3 40 20 40 18 0 20 7 20 80
0 73 2 80 20 80 13 0 20 7 20 20 0 13 7 20 20 20 18 0 20 7 20 60 0 53 2 60
20 60 13 0 20 7 20 20 0 17 7 20 40 20 33 0 40 -3 40 -20z"/>
<path d="M720 980 c0 -93 -1 -100 -20 -100 -17 0 -20 -7 -20 -40 0 -33 -3 -40
-20 -40 -13 0 -20 -7 -20 -20 0 -17 7 -20 40 -20 l40 0 0 -100 0 -100 -40 0
-40 0 0 -40 0 -40 100 0 100 0 0 40 0 40 -40 0 -40 0 0 100 0 100 40 0 c33 0
40 3 40 20 0 13 -7 20 -20 20 -17 0 -20 7 -20 40 0 33 -3 40 -20 40 -19 0 -20
7 -20 100 0 93 -1 100 -20 100 -19 0 -20 -7 -20 -100z"/>
</g>
</svg>
